<svg width="28" height="21" viewBox="0 0 28 21" fill="none" xmlns="http://www.w3.org/2000/svg">
<g clip-path="url(#clip0_271_733)">
<path d="M14.2195 2.67213C14.431 2.59912 14.6608 2.59912 14.8723 2.67213L23.6001 5.68559C24.4699 5.98593 24.5066 7.20255 23.6564 7.55471L14.9286 11.1699C14.6836 11.2714 14.4082 11.2714 14.1632 11.1699L5.43541 7.55471C4.58521 7.20255 4.62187 5.98593 5.49173 5.68559L14.2195 2.67213Z" stroke="#808080" stroke-width="1.5"/>
<path d="M8 8.5L5.18471 9.70369C4.37055 10.0518 4.3771 11.2082 5.19515 11.5471L14.1632 15.2617C14.4082 15.3632 14.6836 15.3632 14.9286 15.2617L23.8764 11.5554C24.6974 11.2154 24.7002 10.0535 23.8809 9.70952L21 8.5" stroke="#808080" stroke-width="1.5"/>
<path d="M7.5 12.5L4.97268 13.7522C4.20315 14.1335 4.24053 15.2435 5.03396 15.5721L14.1632 19.3536C14.4082 19.4551 14.6836 19.4551 14.9286 19.3536L24.1586 15.5304C24.9352 15.2087 24.9925 14.1306 24.2544 13.7284L22 12.5" stroke="#808080" stroke-width="1.5"/>
</g>
<defs>
<clipPath id="clip0_271_733">
<rect width="28" height="21" fill="white"/>
</clipPath>
</defs>
</svg>
