<svg width="26" height="15" viewBox="0 0 26 15" fill="none" xmlns="http://www.w3.org/2000/svg">
<path d="M17.1288 9.3116C12.8652 8.37661 9.84946 8.74017 5.63176 9.86318C5.55815 9.88213 5.48117 9.88402 5.40673 9.86869C5.33229 9.85336 5.26236 9.82122 5.2023 9.77475C5.14225 9.72827 5.09367 9.66869 5.06029 9.60058C5.02692 9.53248 5.00963 9.45765 5.00977 9.38184V6.59966" stroke="#272727" stroke-width="1.5" stroke-miterlimit="10" stroke-linecap="round"/>
<path d="M7.4502 11.545C9.68366 11.7588 10.2679 11.7275 12.4772 11.7588C14.9894 11.7888 17.491 11.4271 19.8913 10.687C19.9928 10.6555 20.0816 10.5925 20.1446 10.507C20.2076 10.4216 20.2414 10.3183 20.2413 10.2123V6.82632C20.2413 6.73916 20.2184 6.65353 20.1747 6.57803C20.131 6.50253 20.0682 6.43984 19.9925 6.39626C18.2187 5.38172 16.2018 4.86714 14.1574 4.90758" stroke="#272727" stroke-width="1.5" stroke-miterlimit="10" stroke-linecap="round"/>
<path d="M4.82597 8.26039L1.0111 6.21097C0.927367 6.16586 0.858361 6.09776 0.812264 6.01473C0.766167 5.93169 0.744917 5.83722 0.751027 5.74251C0.757137 5.6478 0.790354 5.55682 0.84674 5.48036C0.903126 5.40391 0.980315 5.34518 1.06915 5.31115L12.94 0.785547C13.0588 0.738151 13.1912 0.738151 13.3099 0.785547L24.2685 5.39716C24.3564 5.4339 24.4318 5.49501 24.4858 5.57321C24.5398 5.65141 24.5702 5.74344 24.5733 5.83835C24.5765 5.93327 24.5522 6.02709 24.5035 6.10868C24.4548 6.19026 24.3836 6.25619 24.2984 6.29864C23.8224 6.53517 24.6691 6.09216 24.2013 6.33365" stroke="#272727" stroke-width="1.5" stroke-miterlimit="10" stroke-linecap="round"/>
<path d="M22.1191 4.48918V11.4049" stroke="#272727" stroke-width="1.5" stroke-miterlimit="10" stroke-linecap="round"/>
<path d="M23.0878 12.6354L22.5338 11.8084C22.4884 11.7402 22.4268 11.6842 22.3544 11.6455C22.2821 11.6067 22.2013 11.5865 22.1191 11.5865C22.037 11.5865 21.9562 11.6067 21.8838 11.6455C21.8115 11.6842 21.7499 11.7402 21.7045 11.8084L21.1505 12.6354C21.1007 12.7102 21.0722 12.7971 21.0679 12.8867C21.0637 12.9764 21.0839 13.0655 21.1265 13.1446C21.169 13.2237 21.2323 13.2898 21.3096 13.3359C21.3868 13.382 21.4751 13.4063 21.5652 13.4063H22.6715C22.7616 13.4066 22.8502 13.3825 22.9277 13.3365C23.0051 13.2906 23.0687 13.2245 23.1114 13.1453C23.1542 13.0662 23.1745 12.9769 23.1704 12.8871C23.1662 12.7973 23.1377 12.7103 23.0878 12.6354Z" fill="#272727" stroke="#272727" stroke-width="1.5" stroke-miterlimit="10" stroke-linecap="round"/>
</svg>
