<svg width="34" height="19" viewBox="0 0 34 19" fill="none" xmlns="http://www.w3.org/2000/svg">
<path d="M23 12.5C17.2731 11.2441 13.2224 11.7324 7.55714 13.2409C7.45828 13.2663 7.35488 13.2689 7.25489 13.2483C7.15489 13.2277 7.06096 13.1845 6.98029 13.1221C6.89963 13.0597 6.83438 12.9797 6.78955 12.8882C6.74472 12.7967 6.7215 12.6962 6.72168 12.5943V8.8573" stroke="#662483" stroke-width="2" stroke-miterlimit="10" stroke-linecap="round"/>
<path d="M10 15.4999C13 15.7871 13.7848 15.745 16.7523 15.7871C20.1268 15.8273 23.4868 15.3415 26.711 14.3474C26.8474 14.3051 26.9666 14.2204 27.0512 14.1057C27.1358 13.9909 27.1813 13.8522 27.181 13.7097V9.16173C27.1811 9.04465 27.1503 8.92962 27.0916 8.82822C27.0329 8.72681 26.9485 8.6426 26.8469 8.58406C24.4643 7.22132 21.7552 6.53014 19.0091 6.58445" stroke="#662483" stroke-width="2" stroke-miterlimit="10" stroke-linecap="round"/>
<path d="M6.47487 11.088L1.35071 8.33521C1.23824 8.27462 1.14555 8.18314 1.08363 8.07161C1.02172 7.96008 0.993172 7.83319 1.00138 7.70597C1.00959 7.57875 1.0542 7.45655 1.12994 7.35385C1.20568 7.25116 1.30936 7.17227 1.42869 7.12656L17.3737 1.04775C17.5332 0.984084 17.7111 0.984084 17.8706 1.04775L32.5903 7.24209C32.7082 7.29145 32.8095 7.37352 32.882 7.47857C32.9546 7.58361 32.9954 7.70722 32.9996 7.83471C33.0039 7.96219 32.9713 8.08822 32.9059 8.19781C32.8404 8.3074 32.7448 8.39595 32.6304 8.45297C31.9909 8.77068 33.1283 8.17562 32.5 8.5" stroke="#662483" stroke-width="2" stroke-miterlimit="10" stroke-linecap="round"/>
<path d="M29.7031 6.02234V15.3116" stroke="#662483" stroke-width="2" stroke-miterlimit="10" stroke-linecap="round"/>
<path d="M31.0039 16.9647L30.2597 15.8538C30.1988 15.7621 30.116 15.6869 30.0188 15.6349C29.9216 15.5829 29.8131 15.5557 29.7028 15.5557C29.5925 15.5557 29.4839 15.5829 29.3867 15.6349C29.2895 15.6869 29.2068 15.7621 29.1458 15.8538L28.4017 16.9647C28.3348 17.0651 28.2965 17.1817 28.2908 17.3022C28.2851 17.4226 28.3123 17.5423 28.3694 17.6486C28.4266 17.7548 28.5116 17.8436 28.6153 17.9055C28.7191 17.9674 28.8378 18.0001 28.9587 18H30.4447C30.5657 18.0005 30.6847 17.9681 30.7888 17.9064C30.8928 17.8446 30.9782 17.7559 31.0356 17.6496C31.093 17.5432 31.1204 17.4234 31.1148 17.3027C31.1092 17.1821 31.0709 17.0652 31.0039 16.9647Z" fill="#662483" stroke="#662483" stroke-width="2" stroke-miterlimit="10" stroke-linecap="round"/>
</svg>
