<svg width="28" height="21" viewBox="0 0 28 21" fill="none" xmlns="http://www.w3.org/2000/svg">
<g clip-path="url(#clip0_271_732)">
<path d="M13.8066 2.75684C14.0914 2.23802 14.8373 2.23802 15.1221 2.75684L16.1973 4.71582C16.5219 5.30725 17.0955 5.72229 17.7588 5.8457L19.9512 6.25293C20.5362 6.36184 20.7676 7.07667 20.3574 7.50781L18.8359 9.10645C18.3678 9.5984 18.1464 10.2758 18.2344 10.9492L18.5205 13.1406C18.5971 13.7286 17.9934 14.169 17.457 13.916L15.4248 12.957C14.8171 12.6704 14.1126 12.6704 13.5049 12.957L11.4717 13.916C10.9354 14.1688 10.3317 13.7285 10.4082 13.1406L10.6943 10.9492C10.7823 10.2758 10.5609 9.5984 10.0928 9.10645L8.57227 7.50781C8.16199 7.07666 8.39339 6.3618 8.97852 6.25293L11.1709 5.8457C11.8341 5.72226 12.4068 5.3072 12.7314 4.71582L13.8066 2.75684Z" stroke="#808080" stroke-width="1.5"/>
<path d="M8.0392 11.3346L4.55747 17.0967C4.3121 17.5027 4.72103 17.9905 5.16565 17.8222L7.22328 17.043C7.48153 16.9452 7.77106 17.0749 7.86996 17.3327L8.78245 19.7114C8.93524 20.1097 9.48537 20.148 9.68975 19.7746L11.2037 17.0082" stroke="#808080" stroke-width="1.5" stroke-linecap="round"/>
<path d="M20.9237 11.3346L24.4054 17.0967C24.6508 17.5027 24.2419 17.9905 23.7972 17.8222L21.7396 17.043C21.4814 16.9452 21.1918 17.0749 21.0929 17.3327L20.1804 19.7114C20.0276 20.1097 19.4775 20.148 19.2731 19.7746L17.7592 17.0082" stroke="#808080" stroke-width="1.5" stroke-linecap="round"/>
</g>
<defs>
<clipPath id="clip0_271_732">
<rect width="28" height="21" fill="white"/>
</clipPath>
</defs>
</svg>
