<svg width="28" height="19" viewBox="0 0 28 19" fill="none" xmlns="http://www.w3.org/2000/svg">
<path d="M18.3788 12.5616C14.1152 11.6266 11.0995 11.9902 6.88176 13.1132C6.80815 13.1321 6.73117 13.134 6.65673 13.1187C6.58229 13.1034 6.51236 13.0712 6.4523 13.0248C6.39225 12.9783 6.34367 12.9187 6.31029 12.8506C6.27692 12.7825 6.25963 12.7077 6.25977 12.6319V9.84967" stroke="#6D9DEC" stroke-width="1.5" stroke-miterlimit="10" stroke-linecap="round"/>
<path d="M8.7002 14.795C10.9337 15.0088 11.5179 14.9775 13.7272 15.0088C16.2394 15.0388 18.741 14.6771 21.1413 13.937C21.2428 13.9055 21.3316 13.8425 21.3946 13.757C21.4576 13.6716 21.4914 13.5683 21.4913 13.4623V10.0763C21.4913 9.98916 21.4684 9.90353 21.4247 9.82803C21.381 9.75253 21.3182 9.68984 21.2425 9.64626C19.4687 8.63172 17.4518 8.11714 15.4074 8.15758" stroke="#6D9DEC" stroke-width="1.5" stroke-miterlimit="10" stroke-linecap="round"/>
<path d="M6.07597 11.5104L2.2611 9.46097C2.17737 9.41586 2.10836 9.34776 2.06226 9.26473C2.01617 9.18169 1.99492 9.08722 2.00103 8.99251C2.00714 8.8978 2.04035 8.80682 2.09674 8.73036C2.15313 8.65391 2.23031 8.59518 2.31915 8.56115L14.19 4.03555C14.3088 3.98815 14.4412 3.98815 14.5599 4.03555L25.5185 8.64716C25.6064 8.6839 25.6818 8.74501 25.7358 8.82321C25.7898 8.90141 25.8202 8.99344 25.8233 9.08835C25.8265 9.18327 25.8022 9.27709 25.7535 9.35868C25.7048 9.44026 25.6336 9.50619 25.5484 9.54864C25.0724 9.78517 25.9191 9.34216 25.4513 9.58365" stroke="#6D9DEC" stroke-width="1.5" stroke-miterlimit="10" stroke-linecap="round"/>
<path d="M23.3691 7.73917V14.6549" stroke="#6D9DEC" stroke-width="1.5" stroke-miterlimit="10" stroke-linecap="round"/>
<path d="M24.3378 15.8854L23.7838 15.0584C23.7384 14.9901 23.6768 14.9342 23.6044 14.8954C23.5321 14.8567 23.4513 14.8365 23.3691 14.8365C23.287 14.8365 23.2062 14.8567 23.1338 14.8954C23.0615 14.9342 22.9999 14.9901 22.9545 15.0584L22.4005 15.8854C22.3507 15.9602 22.3222 16.047 22.3179 16.1367C22.3137 16.2264 22.3339 16.3155 22.3765 16.3946C22.419 16.4737 22.4823 16.5398 22.5596 16.5859C22.6368 16.632 22.7251 16.6563 22.8152 16.6562H23.9215C24.0116 16.6566 24.1002 16.6325 24.1777 16.5865C24.2551 16.5406 24.3187 16.4745 24.3614 16.3953C24.4042 16.3162 24.4245 16.2269 24.4204 16.1371C24.4162 16.0473 24.3877 15.9603 24.3378 15.8854Z" fill="#6D9DEC" stroke="#6D9DEC" stroke-width="1.5" stroke-miterlimit="10" stroke-linecap="round"/>
</svg>
