<svg width="17" height="20" viewBox="0 0 17 20" fill="none" xmlns="http://www.w3.org/2000/svg">
<path d="M4.38633 18.75H1.75C1.19772 18.75 0.75 18.3023 0.75 17.75V1.75C0.75 1.19772 1.19771 0.75 1.75 0.75H14.7499C15.3022 0.75 15.7499 1.19772 15.7499 1.75V2.4375" stroke="#8D4370" stroke-width="1.5" stroke-linecap="round"/>
<path d="M6.96924 18.75H14.7501C15.3023 18.75 15.7501 18.3023 15.7501 17.75V5.18408" stroke="#8D4370" stroke-width="1.5" stroke-linecap="round"/>
<path d="M5.17847 7.59861V12.2781C5.17847 13.0273 5.9718 13.5104 6.63739 13.1666L10.9288 10.95C11.6324 10.5866 11.6545 9.58839 10.9676 9.1942L6.67623 6.7313C6.00957 6.34869 5.17847 6.82996 5.17847 7.59861Z" stroke="#8D4370" stroke-width="1.5" stroke-linecap="round"/>
</svg>
